<mxfile host="app.diagrams.net" modified="2024-05-09T14:18:10.465Z" agent="Mozilla/5.0 (Windows NT 10.0; Win64; x64) AppleWebKit/537.36 (KHTML, like Gecko) Chrome/124.0.0.0 Safari/537.36 Edg/124.0.0.0" etag="Ev0DB7RX5HBMHchWQCYW" version="24.3.1" type="device">
  <diagram name="Page-1" id="dJ-lrHc8u4u0q2QaUy1w">
    <mxGraphModel dx="1386" dy="797" grid="1" gridSize="10" guides="1" tooltips="1" connect="1" arrows="1" fold="1" page="1" pageScale="1" pageWidth="827" pageHeight="1169" math="0" shadow="0">
      <root>
        <mxCell id="0" />
        <mxCell id="1" parent="0" />
        <mxCell id="XWFTrxcrhexmeHH34AGu-5" value="Doctor" style="html=1;whiteSpace=wrap;fillColor=#f8cecc;strokeColor=#b85450;" vertex="1" parent="1">
          <mxGeometry x="520" y="601" width="110" height="50" as="geometry" />
        </mxCell>
        <mxCell id="XWFTrxcrhexmeHH34AGu-6" value="Patient" style="html=1;whiteSpace=wrap;fillColor=#f8cecc;strokeColor=#b85450;" vertex="1" parent="1">
          <mxGeometry x="380" y="381" width="110" height="50" as="geometry" />
        </mxCell>
        <mxCell id="XWFTrxcrhexmeHH34AGu-7" value="Hospital" style="html=1;whiteSpace=wrap;fillColor=#f8cecc;strokeColor=#b85450;" vertex="1" parent="1">
          <mxGeometry x="60" y="381" width="110" height="50" as="geometry" />
        </mxCell>
        <mxCell id="XWFTrxcrhexmeHH34AGu-8" value="Diagnostic Center" style="html=1;whiteSpace=wrap;fillColor=#f8cecc;strokeColor=#b85450;" vertex="1" parent="1">
          <mxGeometry x="40" y="816" width="110" height="50" as="geometry" />
        </mxCell>
        <mxCell id="XWFTrxcrhexmeHH34AGu-26" value="Vaccine_Log" style="html=1;whiteSpace=wrap;" vertex="1" parent="1">
          <mxGeometry x="270" y="241" width="110" height="50" as="geometry" />
        </mxCell>
        <mxCell id="XWFTrxcrhexmeHH34AGu-27" value="Allergies_Log" style="html=1;whiteSpace=wrap;" vertex="1" parent="1">
          <mxGeometry x="490" y="251" width="110" height="50" as="geometry" />
        </mxCell>
        <mxCell id="XWFTrxcrhexmeHH34AGu-28" value="Doctor Reviews" style="html=1;whiteSpace=wrap;" vertex="1" parent="1">
          <mxGeometry x="520" y="481" width="110" height="50" as="geometry" />
        </mxCell>
        <mxCell id="XWFTrxcrhexmeHH34AGu-29" value="Awards_Honors" style="html=1;whiteSpace=wrap;" vertex="1" parent="1">
          <mxGeometry x="680" y="391" width="110" height="50" as="geometry" />
        </mxCell>
        <mxCell id="XWFTrxcrhexmeHH34AGu-30" value="Speciality" style="html=1;whiteSpace=wrap;" vertex="1" parent="1">
          <mxGeometry x="680" y="541" width="110" height="50" as="geometry" />
        </mxCell>
        <mxCell id="XWFTrxcrhexmeHH34AGu-31" value="Degrees" style="html=1;whiteSpace=wrap;" vertex="1" parent="1">
          <mxGeometry x="680" y="701" width="110" height="50" as="geometry" />
        </mxCell>
        <mxCell id="XWFTrxcrhexmeHH34AGu-32" value="Journals_Publications" style="html=1;whiteSpace=wrap;" vertex="1" parent="1">
          <mxGeometry x="650" y="841" width="140" height="50" as="geometry" />
        </mxCell>
        <mxCell id="XWFTrxcrhexmeHH34AGu-33" value="Appointment" style="html=1;whiteSpace=wrap;" vertex="1" parent="1">
          <mxGeometry x="210" y="461" width="110" height="50" as="geometry" />
        </mxCell>
        <mxCell id="XWFTrxcrhexmeHH34AGu-34" value="Consultations" style="html=1;whiteSpace=wrap;fillColor=#dae8fc;strokeColor=#6c8ebf;" vertex="1" parent="1">
          <mxGeometry x="70" y="604" width="110" height="50" as="geometry" />
        </mxCell>
        <mxCell id="XWFTrxcrhexmeHH34AGu-35" value="" style="endArrow=block;endFill=1;html=1;edgeStyle=orthogonalEdgeStyle;align=left;verticalAlign=top;rounded=0;" edge="1" parent="1" source="XWFTrxcrhexmeHH34AGu-6" target="XWFTrxcrhexmeHH34AGu-27">
          <mxGeometry x="-1" relative="1" as="geometry">
            <mxPoint x="440" y="351" as="sourcePoint" />
            <mxPoint x="600" y="341" as="targetPoint" />
            <Array as="points">
              <mxPoint x="460" y="341" />
              <mxPoint x="545" y="341" />
            </Array>
          </mxGeometry>
        </mxCell>
        <mxCell id="XWFTrxcrhexmeHH34AGu-36" value="1" style="edgeLabel;resizable=0;html=1;align=left;verticalAlign=bottom;" connectable="0" vertex="1" parent="XWFTrxcrhexmeHH34AGu-35">
          <mxGeometry x="-1" relative="1" as="geometry" />
        </mxCell>
        <mxCell id="XWFTrxcrhexmeHH34AGu-37" value="" style="endArrow=block;endFill=1;html=1;edgeStyle=orthogonalEdgeStyle;align=left;verticalAlign=top;rounded=0;" edge="1" parent="1" source="XWFTrxcrhexmeHH34AGu-6" target="XWFTrxcrhexmeHH34AGu-26">
          <mxGeometry x="-1" relative="1" as="geometry">
            <mxPoint x="310" y="521" as="sourcePoint" />
            <mxPoint x="470" y="521" as="targetPoint" />
            <Array as="points">
              <mxPoint x="410" y="341" />
              <mxPoint x="325" y="341" />
            </Array>
          </mxGeometry>
        </mxCell>
        <mxCell id="XWFTrxcrhexmeHH34AGu-38" value="1" style="edgeLabel;resizable=0;html=1;align=left;verticalAlign=bottom;" connectable="0" vertex="1" parent="XWFTrxcrhexmeHH34AGu-37">
          <mxGeometry x="-1" relative="1" as="geometry" />
        </mxCell>
        <mxCell id="XWFTrxcrhexmeHH34AGu-39" value="" style="endArrow=block;endFill=1;html=1;edgeStyle=orthogonalEdgeStyle;align=left;verticalAlign=top;rounded=0;" edge="1" parent="1" source="XWFTrxcrhexmeHH34AGu-6" target="XWFTrxcrhexmeHH34AGu-28">
          <mxGeometry x="-1" relative="1" as="geometry">
            <mxPoint x="310" y="521" as="sourcePoint" />
            <mxPoint x="470" y="521" as="targetPoint" />
          </mxGeometry>
        </mxCell>
        <mxCell id="XWFTrxcrhexmeHH34AGu-40" value="1" style="edgeLabel;resizable=0;html=1;align=left;verticalAlign=bottom;" connectable="0" vertex="1" parent="XWFTrxcrhexmeHH34AGu-39">
          <mxGeometry x="-1" relative="1" as="geometry" />
        </mxCell>
        <mxCell id="XWFTrxcrhexmeHH34AGu-41" value="" style="endArrow=block;endFill=1;html=1;edgeStyle=orthogonalEdgeStyle;align=left;verticalAlign=top;rounded=0;" edge="1" parent="1" source="XWFTrxcrhexmeHH34AGu-5" target="XWFTrxcrhexmeHH34AGu-28">
          <mxGeometry x="-1" relative="1" as="geometry">
            <mxPoint x="310" y="521" as="sourcePoint" />
            <mxPoint x="470" y="521" as="targetPoint" />
          </mxGeometry>
        </mxCell>
        <mxCell id="XWFTrxcrhexmeHH34AGu-42" value="1" style="edgeLabel;resizable=0;html=1;align=left;verticalAlign=bottom;" connectable="0" vertex="1" parent="XWFTrxcrhexmeHH34AGu-41">
          <mxGeometry x="-1" relative="1" as="geometry" />
        </mxCell>
        <mxCell id="XWFTrxcrhexmeHH34AGu-43" value="" style="endArrow=block;endFill=1;html=1;edgeStyle=orthogonalEdgeStyle;align=left;verticalAlign=top;rounded=0;" edge="1" parent="1" source="XWFTrxcrhexmeHH34AGu-5" target="XWFTrxcrhexmeHH34AGu-29">
          <mxGeometry x="-1" relative="1" as="geometry">
            <mxPoint x="624" y="597" as="sourcePoint" />
            <mxPoint x="660" y="421" as="targetPoint" />
            <Array as="points">
              <mxPoint x="624" y="561" />
              <mxPoint x="655" y="561" />
              <mxPoint x="655" y="416" />
            </Array>
          </mxGeometry>
        </mxCell>
        <mxCell id="XWFTrxcrhexmeHH34AGu-44" value="1" style="edgeLabel;resizable=0;html=1;align=left;verticalAlign=bottom;" connectable="0" vertex="1" parent="XWFTrxcrhexmeHH34AGu-43">
          <mxGeometry x="-1" relative="1" as="geometry" />
        </mxCell>
        <mxCell id="XWFTrxcrhexmeHH34AGu-45" value="" style="endArrow=block;endFill=1;html=1;edgeStyle=orthogonalEdgeStyle;align=left;verticalAlign=top;rounded=0;" edge="1" parent="1" source="XWFTrxcrhexmeHH34AGu-5" target="XWFTrxcrhexmeHH34AGu-30">
          <mxGeometry x="-1" relative="1" as="geometry">
            <mxPoint x="320" y="571" as="sourcePoint" />
            <mxPoint x="470" y="521" as="targetPoint" />
          </mxGeometry>
        </mxCell>
        <mxCell id="XWFTrxcrhexmeHH34AGu-46" value="1" style="edgeLabel;resizable=0;html=1;align=left;verticalAlign=bottom;" connectable="0" vertex="1" parent="XWFTrxcrhexmeHH34AGu-45">
          <mxGeometry x="-1" relative="1" as="geometry" />
        </mxCell>
        <mxCell id="XWFTrxcrhexmeHH34AGu-47" value="" style="endArrow=block;endFill=1;html=1;edgeStyle=orthogonalEdgeStyle;align=left;verticalAlign=top;rounded=0;" edge="1" parent="1" target="XWFTrxcrhexmeHH34AGu-31">
          <mxGeometry x="-1" relative="1" as="geometry">
            <mxPoint x="630" y="643" as="sourcePoint" />
            <mxPoint x="735" y="701" as="targetPoint" />
          </mxGeometry>
        </mxCell>
        <mxCell id="XWFTrxcrhexmeHH34AGu-48" value="1" style="edgeLabel;resizable=0;html=1;align=left;verticalAlign=bottom;" connectable="0" vertex="1" parent="XWFTrxcrhexmeHH34AGu-47">
          <mxGeometry x="-1" relative="1" as="geometry" />
        </mxCell>
        <mxCell id="XWFTrxcrhexmeHH34AGu-49" value="" style="endArrow=block;endFill=1;html=1;edgeStyle=orthogonalEdgeStyle;align=left;verticalAlign=top;rounded=0;exitX=0.75;exitY=1;exitDx=0;exitDy=0;" edge="1" parent="1" source="XWFTrxcrhexmeHH34AGu-5" target="XWFTrxcrhexmeHH34AGu-32">
          <mxGeometry x="-1" relative="1" as="geometry">
            <mxPoint x="470" y="781" as="sourcePoint" />
            <mxPoint x="730" y="831" as="targetPoint" />
            <Array as="points">
              <mxPoint x="603" y="800" />
              <mxPoint x="720" y="800" />
            </Array>
          </mxGeometry>
        </mxCell>
        <mxCell id="XWFTrxcrhexmeHH34AGu-50" value="1" style="edgeLabel;resizable=0;html=1;align=left;verticalAlign=bottom;" connectable="0" vertex="1" parent="XWFTrxcrhexmeHH34AGu-49">
          <mxGeometry x="-1" relative="1" as="geometry" />
        </mxCell>
        <mxCell id="XWFTrxcrhexmeHH34AGu-51" value="" style="endArrow=block;endFill=1;html=1;edgeStyle=orthogonalEdgeStyle;align=left;verticalAlign=top;rounded=0;" edge="1" parent="1" source="XWFTrxcrhexmeHH34AGu-7" target="XWFTrxcrhexmeHH34AGu-33">
          <mxGeometry x="-1" relative="1" as="geometry">
            <mxPoint x="310" y="641" as="sourcePoint" />
            <mxPoint x="470" y="641" as="targetPoint" />
          </mxGeometry>
        </mxCell>
        <mxCell id="XWFTrxcrhexmeHH34AGu-52" value="1" style="edgeLabel;resizable=0;html=1;align=left;verticalAlign=bottom;" connectable="0" vertex="1" parent="XWFTrxcrhexmeHH34AGu-51">
          <mxGeometry x="-1" relative="1" as="geometry" />
        </mxCell>
        <mxCell id="XWFTrxcrhexmeHH34AGu-53" value="" style="endArrow=block;endFill=1;html=1;edgeStyle=orthogonalEdgeStyle;align=left;verticalAlign=top;rounded=0;" edge="1" parent="1" source="XWFTrxcrhexmeHH34AGu-6" target="XWFTrxcrhexmeHH34AGu-33">
          <mxGeometry x="-1" relative="1" as="geometry">
            <mxPoint x="310" y="641" as="sourcePoint" />
            <mxPoint x="470" y="641" as="targetPoint" />
            <Array as="points">
              <mxPoint x="290" y="406" />
            </Array>
          </mxGeometry>
        </mxCell>
        <mxCell id="XWFTrxcrhexmeHH34AGu-54" value="1" style="edgeLabel;resizable=0;html=1;align=left;verticalAlign=bottom;" connectable="0" vertex="1" parent="XWFTrxcrhexmeHH34AGu-53">
          <mxGeometry x="-1" relative="1" as="geometry" />
        </mxCell>
        <mxCell id="XWFTrxcrhexmeHH34AGu-55" value="" style="endArrow=block;endFill=1;html=1;edgeStyle=orthogonalEdgeStyle;align=left;verticalAlign=top;rounded=0;entryX=0.5;entryY=1;entryDx=0;entryDy=0;" edge="1" parent="1" source="XWFTrxcrhexmeHH34AGu-5" target="XWFTrxcrhexmeHH34AGu-33">
          <mxGeometry x="-1" relative="1" as="geometry">
            <mxPoint x="310" y="641" as="sourcePoint" />
            <mxPoint x="470" y="641" as="targetPoint" />
            <Array as="points">
              <mxPoint x="265" y="611" />
            </Array>
          </mxGeometry>
        </mxCell>
        <mxCell id="XWFTrxcrhexmeHH34AGu-56" value="1" style="edgeLabel;resizable=0;html=1;align=left;verticalAlign=bottom;" connectable="0" vertex="1" parent="XWFTrxcrhexmeHH34AGu-55">
          <mxGeometry x="-1" relative="1" as="geometry" />
        </mxCell>
        <mxCell id="XWFTrxcrhexmeHH34AGu-57" value="" style="endArrow=block;endFill=1;html=1;edgeStyle=orthogonalEdgeStyle;align=left;verticalAlign=top;rounded=0;" edge="1" parent="1" source="XWFTrxcrhexmeHH34AGu-5" target="XWFTrxcrhexmeHH34AGu-34">
          <mxGeometry x="-1" relative="1" as="geometry">
            <mxPoint x="310" y="641" as="sourcePoint" />
            <mxPoint x="220" y="631" as="targetPoint" />
            <Array as="points">
              <mxPoint x="270" y="626" />
              <mxPoint x="270" y="626" />
            </Array>
          </mxGeometry>
        </mxCell>
        <mxCell id="XWFTrxcrhexmeHH34AGu-58" value="1" style="edgeLabel;resizable=0;html=1;align=left;verticalAlign=bottom;" connectable="0" vertex="1" parent="XWFTrxcrhexmeHH34AGu-57">
          <mxGeometry x="-1" relative="1" as="geometry" />
        </mxCell>
        <mxCell id="XWFTrxcrhexmeHH34AGu-59" value="" style="endArrow=block;endFill=1;html=1;edgeStyle=orthogonalEdgeStyle;align=left;verticalAlign=top;rounded=0;exitX=0.5;exitY=1;exitDx=0;exitDy=0;" edge="1" parent="1" source="XWFTrxcrhexmeHH34AGu-7" target="XWFTrxcrhexmeHH34AGu-34">
          <mxGeometry x="-1" relative="1" as="geometry">
            <mxPoint x="310" y="641" as="sourcePoint" />
            <mxPoint x="470" y="641" as="targetPoint" />
            <Array as="points">
              <mxPoint x="125" y="431" />
            </Array>
          </mxGeometry>
        </mxCell>
        <mxCell id="XWFTrxcrhexmeHH34AGu-60" value="1" style="edgeLabel;resizable=0;html=1;align=left;verticalAlign=bottom;" connectable="0" vertex="1" parent="XWFTrxcrhexmeHH34AGu-59">
          <mxGeometry x="-1" relative="1" as="geometry" />
        </mxCell>
        <mxCell id="XWFTrxcrhexmeHH34AGu-61" value="Prescriptions" style="html=1;whiteSpace=wrap;" vertex="1" parent="1">
          <mxGeometry x="310" y="711" width="110" height="50" as="geometry" />
        </mxCell>
        <mxCell id="XWFTrxcrhexmeHH34AGu-64" value="" style="endArrow=block;endFill=1;html=1;edgeStyle=orthogonalEdgeStyle;align=left;verticalAlign=top;rounded=0;entryX=0.5;entryY=0;entryDx=0;entryDy=0;" edge="1" parent="1" source="XWFTrxcrhexmeHH34AGu-6" target="XWFTrxcrhexmeHH34AGu-61">
          <mxGeometry x="-1" relative="1" as="geometry">
            <mxPoint x="310" y="641" as="sourcePoint" />
            <mxPoint x="340" y="711" as="targetPoint" />
            <Array as="points">
              <mxPoint x="435" y="661" />
              <mxPoint x="365" y="661" />
            </Array>
          </mxGeometry>
        </mxCell>
        <mxCell id="XWFTrxcrhexmeHH34AGu-65" value="1" style="edgeLabel;resizable=0;html=1;align=left;verticalAlign=bottom;" connectable="0" vertex="1" parent="XWFTrxcrhexmeHH34AGu-64">
          <mxGeometry x="-1" relative="1" as="geometry" />
        </mxCell>
        <mxCell id="XWFTrxcrhexmeHH34AGu-66" value="Test" style="html=1;whiteSpace=wrap;fillColor=#d5e8d4;strokeColor=#82b366;" vertex="1" parent="1">
          <mxGeometry x="50" y="961" width="110" height="50" as="geometry" />
        </mxCell>
        <mxCell id="XWFTrxcrhexmeHH34AGu-67" value="Test Log" style="html=1;whiteSpace=wrap;" vertex="1" parent="1">
          <mxGeometry x="160" y="711" width="110" height="50" as="geometry" />
        </mxCell>
        <mxCell id="XWFTrxcrhexmeHH34AGu-68" value="" style="endArrow=block;endFill=1;html=1;edgeStyle=orthogonalEdgeStyle;align=left;verticalAlign=top;rounded=0;" edge="1" parent="1" source="XWFTrxcrhexmeHH34AGu-66" target="XWFTrxcrhexmeHH34AGu-67">
          <mxGeometry x="-1" relative="1" as="geometry">
            <mxPoint x="310" y="641" as="sourcePoint" />
            <mxPoint x="470" y="641" as="targetPoint" />
            <Array as="points">
              <mxPoint x="215" y="986" />
            </Array>
          </mxGeometry>
        </mxCell>
        <mxCell id="XWFTrxcrhexmeHH34AGu-69" value="1" style="edgeLabel;resizable=0;html=1;align=left;verticalAlign=bottom;" connectable="0" vertex="1" parent="XWFTrxcrhexmeHH34AGu-68">
          <mxGeometry x="-1" relative="1" as="geometry" />
        </mxCell>
        <mxCell id="XWFTrxcrhexmeHH34AGu-70" value="" style="endArrow=block;endFill=1;html=1;edgeStyle=orthogonalEdgeStyle;align=left;verticalAlign=top;rounded=0;" edge="1" parent="1" source="XWFTrxcrhexmeHH34AGu-6" target="XWFTrxcrhexmeHH34AGu-67">
          <mxGeometry x="-1" relative="1" as="geometry">
            <mxPoint x="310" y="641" as="sourcePoint" />
            <mxPoint x="470" y="641" as="targetPoint" />
            <Array as="points">
              <mxPoint x="393" y="651" />
              <mxPoint x="230" y="651" />
            </Array>
          </mxGeometry>
        </mxCell>
        <mxCell id="XWFTrxcrhexmeHH34AGu-71" value="1" style="edgeLabel;resizable=0;html=1;align=left;verticalAlign=bottom;" connectable="0" vertex="1" parent="XWFTrxcrhexmeHH34AGu-70">
          <mxGeometry x="-1" relative="1" as="geometry" />
        </mxCell>
        <mxCell id="XWFTrxcrhexmeHH34AGu-72" value="" style="endArrow=block;endFill=1;html=1;edgeStyle=orthogonalEdgeStyle;align=left;verticalAlign=top;rounded=0;" edge="1" parent="1" source="XWFTrxcrhexmeHH34AGu-61" target="XWFTrxcrhexmeHH34AGu-67">
          <mxGeometry x="-1" relative="1" as="geometry">
            <mxPoint x="310" y="641" as="sourcePoint" />
            <mxPoint x="415" y="751" as="targetPoint" />
            <Array as="points">
              <mxPoint x="380" y="736" />
            </Array>
          </mxGeometry>
        </mxCell>
        <mxCell id="XWFTrxcrhexmeHH34AGu-73" value="1" style="edgeLabel;resizable=0;html=1;align=left;verticalAlign=bottom;" connectable="0" vertex="1" parent="XWFTrxcrhexmeHH34AGu-72">
          <mxGeometry x="-1" relative="1" as="geometry" />
        </mxCell>
        <mxCell id="XWFTrxcrhexmeHH34AGu-74" value="" style="endArrow=block;endFill=1;html=1;edgeStyle=orthogonalEdgeStyle;align=left;verticalAlign=top;rounded=0;" edge="1" parent="1" source="XWFTrxcrhexmeHH34AGu-8" target="XWFTrxcrhexmeHH34AGu-67">
          <mxGeometry x="-1" relative="1" as="geometry">
            <mxPoint x="310" y="641" as="sourcePoint" />
            <mxPoint x="470" y="641" as="targetPoint" />
            <Array as="points">
              <mxPoint x="100" y="736" />
            </Array>
          </mxGeometry>
        </mxCell>
        <mxCell id="XWFTrxcrhexmeHH34AGu-75" value="1" style="edgeLabel;resizable=0;html=1;align=left;verticalAlign=bottom;" connectable="0" vertex="1" parent="XWFTrxcrhexmeHH34AGu-74">
          <mxGeometry x="-1" relative="1" as="geometry" />
        </mxCell>
        <mxCell id="XWFTrxcrhexmeHH34AGu-76" value="Medicine" style="html=1;whiteSpace=wrap;fillColor=#d5e8d4;strokeColor=#82b366;" vertex="1" parent="1">
          <mxGeometry x="460" y="851" width="110" height="50" as="geometry" />
        </mxCell>
        <mxCell id="XWFTrxcrhexmeHH34AGu-77" value="Prescribed_In" style="html=1;whiteSpace=wrap;fillColor=#dae8fc;strokeColor=#6c8ebf;" vertex="1" parent="1">
          <mxGeometry x="460" y="721" width="110" height="50" as="geometry" />
        </mxCell>
        <mxCell id="XWFTrxcrhexmeHH34AGu-78" value="" style="endArrow=block;endFill=1;html=1;edgeStyle=orthogonalEdgeStyle;align=left;verticalAlign=top;rounded=0;" edge="1" parent="1" source="XWFTrxcrhexmeHH34AGu-76" target="XWFTrxcrhexmeHH34AGu-77">
          <mxGeometry x="-1" relative="1" as="geometry">
            <mxPoint x="310" y="641" as="sourcePoint" />
            <mxPoint x="470" y="641" as="targetPoint" />
          </mxGeometry>
        </mxCell>
        <mxCell id="XWFTrxcrhexmeHH34AGu-79" value="1" style="edgeLabel;resizable=0;html=1;align=left;verticalAlign=bottom;" connectable="0" vertex="1" parent="XWFTrxcrhexmeHH34AGu-78">
          <mxGeometry x="-1" relative="1" as="geometry" />
        </mxCell>
        <mxCell id="XWFTrxcrhexmeHH34AGu-80" value="" style="endArrow=block;endFill=1;html=1;edgeStyle=orthogonalEdgeStyle;align=left;verticalAlign=top;rounded=0;" edge="1" parent="1" source="XWFTrxcrhexmeHH34AGu-61" target="XWFTrxcrhexmeHH34AGu-77">
          <mxGeometry x="-1" relative="1" as="geometry">
            <mxPoint x="310" y="641" as="sourcePoint" />
            <mxPoint x="470" y="641" as="targetPoint" />
            <Array as="points">
              <mxPoint x="430" y="736" />
              <mxPoint x="430" y="736" />
            </Array>
          </mxGeometry>
        </mxCell>
        <mxCell id="XWFTrxcrhexmeHH34AGu-81" value="1" style="edgeLabel;resizable=0;html=1;align=left;verticalAlign=bottom;" connectable="0" vertex="1" parent="XWFTrxcrhexmeHH34AGu-80">
          <mxGeometry x="-1" relative="1" as="geometry" />
        </mxCell>
        <mxCell id="XWFTrxcrhexmeHH34AGu-82" value="" style="endArrow=block;endFill=1;html=1;edgeStyle=orthogonalEdgeStyle;align=left;verticalAlign=top;rounded=0;" edge="1" parent="1" source="XWFTrxcrhexmeHH34AGu-5" target="XWFTrxcrhexmeHH34AGu-61">
          <mxGeometry x="-1" relative="1" as="geometry">
            <mxPoint x="310" y="641" as="sourcePoint" />
            <mxPoint x="470" y="641" as="targetPoint" />
            <Array as="points">
              <mxPoint x="575" y="681" />
              <mxPoint x="410" y="681" />
            </Array>
          </mxGeometry>
        </mxCell>
        <mxCell id="XWFTrxcrhexmeHH34AGu-83" value="1" style="edgeLabel;resizable=0;html=1;align=left;verticalAlign=bottom;" connectable="0" vertex="1" parent="XWFTrxcrhexmeHH34AGu-82">
          <mxGeometry x="-1" relative="1" as="geometry" />
        </mxCell>
      </root>
    </mxGraphModel>
  </diagram>
</mxfile>
